# xmcd CD database file
#
# Track frame offsets:
#	150
#	31897
#	54832
#	74936
#	106529
#	117628
#	136916
#	150814
#	173210
#	189534
#	207618
#	225687
#	248088
#	265573
#
# Disc length: 3752 seconds
#
# Revision: 1
# Processed by: cddbd v1.5.2PL0 Copyright (c) Steve Scherf et al.
# Submitted via: CDex 1.51
#
DISCID=bb0ea60e
DTITLE=Guy Davis - Sweetheart Like You
DYEAR=2009
DGENRE=Blues
TTITLE0=Sweetheart Like You
TTITLE1=Slow Motion Daddy
TTITLE2=Follow Me Down
TTITLE3=Sweet Hannah
TTITLE4=Bring Back Storyville
TTITLE5=Words To My Mama's Song
TTITLE6=Down South Blues
TTITLE7=Hoochie Coochie Man
TTITLE8=Steamboat Captain
TTITLE9=Can't Be Satisfied
TTITLE10=Baby Please Don't Go
TTITLE11=Angels Are Calling
TTITLE12=Goin' Back to Silver Spring
TTITLE13=Ain't Goin' Down
EXTD=YEAR: 2009
EXTT0=
EXTT1=
EXTT2=
EXTT3=
EXTT4=
EXTT5=
EXTT6=
EXTT7=
EXTT8=
EXTT9=
EXTT10=
EXTT11=
EXTT12=
EXTT13=
PLAYORDER=
